<svg version="1" xmlns="http://www.w3.org/2000/svg" width="720" height="720" viewBox="0 0 540.000000 540.000000"><path d="M0 270.5V533h419.9V398H330v45H90V98l100.3-.2c55.1-.2 109.1-.2 120 0l19.7.2v45h90l-.1-67.5V8H0v262.5z"/><path d="M450 120.5V233h-30l-.1-9.8v-30l.1-20.2h-90v194.6l4.8.3c2.6.2 5.4.3 6.2.2h44.5c4-.2 26.2-.3 27-.1.6.1 2.4.2 4.2.1l3.2-.1v-29.6c0-16.3.1-29.8.3-29.9.4-.4 13.5-.7 23.1-.6l6.7.1v225h90V8h-90v112.5zm-324.2 7.3l-5.6.3.1 86.2.2 86.2h112l.1 25c0 13.8-.2 25.6-.4 26.2-.5 1.6-44.1 1.9-44.3.3-.1-.6-.3-5.1-.4-10-.1-5-.3-9.6-.4-10.3-.1-.9-7.4-1.2-33.3-1.2h-33.3l-.2 41.3-.2 41.2h180l-.1-11.8v-19.7c0-6.1.1-40.9.1-48 0-1.2-.1-20.6-.1-34.5-.1-5.2-.1-12.2 0-15.5 0-13.3-.1-26.4-.3-34.5l-.2-8.5h-112v-52l11.9-.5c6.5-.3 16.6-.3 22.5 0l10.6.5v10.7c0 6.7.3 10.8 1 10.9 4.4.5 65.8.3 66.1-.3.2-.3.4-4 .4-8v-28.1c0-3.4-.1-14.2-.2-24-.2-9.7 0-17.7.3-17.7s.4-1.1.1-2.5c-.2-1.4-.8-2.3-1.2-2-.6.4-5.5.5-15.5.4H267c-14.3.2-26.2.1-27-.4-.5-.3-1.1-.2-1.4.3-.3.4-3 .5-6.1.2-3.1-.3-5.8-.3-6 0-.2.3-2.9.3-6 0s-5.8-.3-6 0c-.2.3-2.9.3-6 0s-5.8-.3-6 0c-.2.3-2.9.3-6 0s-5.8-.3-6 0c-.2.3-2.9.3-6 0s-5.8-.3-6 0c-.2.3-2.9.3-6 0s-5.8-.3-6 0c-.2.3-2.9.3-6 0s-5.8-.3-6 0c-.2.3-2.8.4-5.7.1-2.9-.3-7.1-.4-9.3-.1-2.2.3-4.9.3-6 0-1.1-.3-4.6-.4-7.7-.2z"/></svg>