<svg class="logo" viewBox="0 0 1740 526" xmlns="http://www.w3.org/2000/svg"><path d="M420 135V0H0v525h420V390h-90v45H90V90h240v45h90"/><path d="M240.001 196.849H300v-76.85H120.001V292.5H240V345h-60v-14.098h-59.999V405H300V232.5H180.001L180 180h60l.001 16.849M420 300v60h-90V165h90v60h30V0h90v525h-90V300h-30M675 15V0h-90v15h-15v105h15v15h90v-15h15V90h-30v15h-60V30h60v15h30V15h-15m750 195v-15h-90v15h-15v105h15v15h90v-15h15v-30h-30v15h-60v-75h60v15h30v-30h-15m-600 0v-15h-90v15h-15v105h15v15h90v-15h15v-30h-30v15h-60v-75h60v15h30v-30h-15m0-195V0h-90v15h-15v105h15v15h90v-15h15V15h-15zm-75 15h60v75h-60V30zm75 375v-15h-90v15h-15v105h15v15h90v-15h15V405h-15zm-75 15h60v75h-60v-75zM960 0v15h-15v15h-30V15h-15V0h-30v135h30V45h15v15h30V45h15v90h30V0h-30m165 15V0h-105v135h30V90h75V75h15V15h-15zm-75 15h60v30h-60V30zm210-30v105h-60V0h-30v120h15v15h90v-15h15V0h-30M960 390v105h-60V390h-30v120h15v15h90v-15h15V390h-30M1320 0v30h45v105h30V30h45V0h-120M870 195v30h45v75h-45v30h120v-30h-45v-75h45v-30H870M1470 0v135h120v-30h-90V90h60V60h-60V30h90V0h-120m0 195v135h120v-30h-90v-15h60v-30h-60v-30h90v-30h-120m-450 0v135h120v-30h-90v-15h60v-30h-60v-30h90v-30h-120m150 195v135h120v-30h-90v-15h60v-30h-60v-30h90v-30h-120m555-375V0h-105v135h30V90h60v45h30V90h-15V75h15V15h-15zm-75 15h60v30h-60V30zm-390 165v75h-15v-15h-15v-15h-15v-15h-15v-30h-30v135h30v-75h15v15h15v15h15v15h15v30h30V195h-30m-570 30v-30H585v15h-15v45h15v15h45v15h30v15h-90v30h105v-15h15v-45h-15v-15h-45v-15h-30v-15h90m450 195v-30h-105v15h-15v45h15v15h45v15h30v15h-90v30h105v-15h15v-45h-15v-15h-45v-15h-30v-15h90m-480-30v60h-60v-60h-30v135h30v-45h60v45h30V390h-30"/></svg>