<svg xmlns="http://www.w3.org/2000/svg" width="1920" height="1080"><path d="M886 1358l-760 40 954-29z" fill="#49cdca" stroke="#49cdca" stroke-width="1.51"/><path d="M1080 1369l-954 29 1319-16z" fill="#4ad0c9" stroke="#4ad0c9" stroke-width="1.51"/><path d="M703-231l515-20 461-58z" fill="#38b4d2" stroke="#38b4d2" stroke-width="1.51"/><path d="M-83-280l786 49 976-78z" fill="#32add4" stroke="#32add4" stroke-width="1.51"/><path d="M1218-251l141-8 320-50z" fill="#3bb6d1" stroke="#3bb6d1" stroke-width="1.51"/><path d="M1953 799l-28 305 85 19z" fill="#4dd8c6" stroke="#4dd8c6" stroke-width="1.51"/><path d="M1703 1352l-258 30 592-13z" fill="#4edbc5" stroke="#4edbc5" stroke-width="1.51"/><path d="M-83-280l1762-29 366-9z" fill="#38b3d3" stroke="#38b3d3" stroke-width="1.51"/><path d="M2045-318l-89 133 97 142z" fill="#42c1ce" stroke="#42c1ce" stroke-width="1.51"/><path d="M2045-318l8 275 40 373z" fill="#45c4cc" stroke="#45c4cc" stroke-width="1.51"/><path d="M2053-43l-8 199 48 174z" fill="#46c8cb" stroke="#46c8cb" stroke-width="1.51"/><path d="M2093 330l-51 96 72 335z" fill="#4acfc9" stroke="#4acfc9" stroke-width="1.51"/><path d="M2042 426l-32 137 104 198z" fill="#4ad0c9" stroke="#4ad0c9" stroke-width="1.51"/><path d="M2045-318l48 648 75 683z" fill="#48ccca" stroke="#48ccca" stroke-width="1.51"/><path d="M2114 761l-161 38 215 214z" fill="#4cd6c7" stroke="#4cd6c7" stroke-width="1.51"/><path d="M1953 799l57 324 158-110z" fill="#4dd8c6" stroke="#4dd8c6" stroke-width="1.51"/><path d="M2010 1123l27 246 131-356z" fill="#4edcc5" stroke="#4edcc5" stroke-width="1.51"/><path d="M2093 330l21 431 54 252z" fill="#4bd3c8" stroke="#4bd3c8" stroke-width="1.51"/><path d="M1837 973l88 131 28-305z" fill="#4cd6c7" stroke="#4cd6c7" stroke-width="1.51"/><path d="M2010 1123l-152 144 179 102z" fill="#4edcc4" stroke="#4edcc4" stroke-width="1.51"/><path d="M1971 150l74 6 8-199z" fill="#45c6cc" stroke="#45c6cc" stroke-width="1.51"/><path d="M2045 156l-74-6 122 180z" fill="#47c9cb" stroke="#47c9cb" stroke-width="1.51"/><path d="M2010 563l-57 236 161-38z" fill="#4bd2c8" stroke="#4bd2c8" stroke-width="1.51"/><path d="M1874 607l79 192 57-236z" fill="#4ad0c9" stroke="#4ad0c9" stroke-width="1.51"/><path d="M1971 150l-91 213 213-33z" fill="#47c9cb" stroke="#47c9cb" stroke-width="1.51"/><path d="M1880 363l71 44 142-77z" fill="#48cbca" stroke="#48cbca" stroke-width="1.51"/><path d="M1951 407l91 19 51-96z" fill="#48ccca" stroke="#48ccca" stroke-width="1.51"/><path d="M756 1337l-630 61 760-40z" fill="#48cbcb" stroke="#48cbcb" stroke-width="1.51"/><path d="M1858 1267l-155 85 334 17z" fill="#4fddc4" stroke="#4fddc4" stroke-width="1.51"/><path d="M1951 407l59 156 32-137z" fill="#49cdca" stroke="#49cdca" stroke-width="1.51"/><path d="M1923-79l48 229 82-193z" fill="#44c4cd" stroke="#44c4cd" stroke-width="1.51"/><path d="M1956-185l-33 106 130 36z" fill="#42c2cd" stroke="#42c2cd" stroke-width="1.51"/><path d="M1925 1104l-67 163 152-144z" fill="#4edac6" stroke="#4edac6" stroke-width="1.51"/><path d="M1679-309l277 124 89-133z" fill="#40bdcf" stroke="#40bdcf" stroke-width="1.51"/><path d="M1809 277l71 86 91-213z" fill="#46c7cc" stroke="#46c7cc" stroke-width="1.51"/><path d="M1923-79l-133 245 181-16z" fill="#44c4cd" stroke="#44c4cd" stroke-width="1.51"/><path d="M1951 407l-77 200 136-44z" fill="#49cdca" stroke="#49cdca" stroke-width="1.51"/><path d="M1804 429l70 178 77-200z" fill="#48ccca" stroke="#48ccca" stroke-width="1.51"/><path d="M1874 607l-126 169 205 23z" fill="#4ad0c9" stroke="#4ad0c9" stroke-width="1.51"/><path d="M1790 166l19 111 162-127z" fill="#45c6cc" stroke="#45c6cc" stroke-width="1.51"/><path d="M1680-20l110 186 133-245z" fill="#43c2ce" stroke="#43c2ce" stroke-width="1.51"/><path d="M1880 363l-76 66 147-22z" fill="#48cacb" stroke="#48cacb" stroke-width="1.51"/><path d="M1748 776l89 197 116-174z" fill="#4bd2c8" stroke="#4bd2c8" stroke-width="1.51"/><path d="M1679-309l244 230 33-106z" fill="#40bece" stroke="#40bece" stroke-width="1.51"/><path d="M1359-259h171l149-50z" fill="#3cb8d1" stroke="#3cb8d1" stroke-width="1.51"/><path d="M1775 1211l83 56 67-163z" fill="#4ed9c5" stroke="#4ed9c5" stroke-width="1.51"/><path d="M1679-309l1 289 243-59z" fill="#41becf" stroke="#41becf" stroke-width="1.51"/><path d="M1837 973l-62 238 150-107z" fill="#4dd7c7" stroke="#4dd7c7" stroke-width="1.51"/><path d="M-83-280l513 79 273-30z" fill="#2ca8d6" stroke="#2ca8d6" stroke-width="1.51"/><path d="M1708 957l67 254 62-238z" fill="#4dd5c7" stroke="#4dd5c7" stroke-width="1.51"/><path d="M1748 776l-40 181 129 16z" fill="#4bd2c8" stroke="#4bd2c8" stroke-width="1.51"/><path d="M1804 429l-120 148 190 30z" fill="#48ccca" stroke="#48ccca" stroke-width="1.51"/><path d="M1684 577l64 199 126-169z" fill="#49cdca" stroke="#49cdca" stroke-width="1.51"/><path d="M1809 277l-5 152 76-66z" fill="#46c9cc" stroke="#46c9cc" stroke-width="1.51"/><path d="M1775 1211l-72 141 155-85z" fill="#4edac5" stroke="#4edac5" stroke-width="1.51"/><path d="M1684 577l-51 128 115 71z" fill="#49cdca" stroke="#49cdca" stroke-width="1.51"/><path d="M1708 957l-111 306 178-52z" fill="#4dd6c7" stroke="#4dd6c7" stroke-width="1.51"/><path d="M1790 166l-235 36 254 75z" fill="#44c4cd" stroke="#44c4cd" stroke-width="1.51"/><path d="M1541 444l263-15 5-152z" fill="#46c8cc" stroke="#46c8cc" stroke-width="1.51"/><path d="M1555 202l-14 242 268-167z" fill="#44c5cd" stroke="#44c5cd" stroke-width="1.51"/><path d="M1541 444l143 133 120-148z" fill="#47c9cb" stroke="#47c9cb" stroke-width="1.51"/><path d="M446 1326l-320 72 630-61z" fill="#46c9cb" stroke="#46c9cb" stroke-width="1.51"/><path d="M1679-309l-149 50 150 239z" fill="#3ebbd0" stroke="#3ebbd0" stroke-width="1.51"/><path d="M1484 1053l113 210 111-306z" fill="#4cd4c8" stroke="#4cd4c8" stroke-width="1.51"/><path d="M1680-20l-125 222 235-36z" fill="#43c1ce" stroke="#43c1ce" stroke-width="1.51"/><path d="M1588 933l120 24 40-181z" fill="#4bd1c9" stroke="#4bd1c9" stroke-width="1.51"/><path d="M1597 1263l106 89 72-141z" fill="#4ed9c6" stroke="#4ed9c6" stroke-width="1.51"/><path d="M1529 170l26 32 125-222z" fill="#42c0ce" stroke="#42c0ce" stroke-width="1.51"/><path d="M1530-259l-18 212 168 27z" fill="#3fbccf" stroke="#3fbccf" stroke-width="1.51"/><path d="M1588 933l-104 120 224-96z" fill="#4bd1c8" stroke="#4bd1c8" stroke-width="1.51"/><path d="M1633 705l-45 228 160-157z" fill="#49cfc9" stroke="#49cfc9" stroke-width="1.51"/><path d="M1484 1053l5 153 108 57z" fill="#4cd4c8" stroke="#4cd4c8" stroke-width="1.51"/><path d="M1541 722l47 211 45-228z" fill="#49ceca" stroke="#49ceca" stroke-width="1.51"/><path d="M1597 1263l-152 119 258-30z" fill="#4dd9c6" stroke="#4dd9c6" stroke-width="1.51"/><path d="M1512-47l17 217 151-190z" fill="#41becf" stroke="#41becf" stroke-width="1.51"/><path d="M1420 632l121 90 143-145z" fill="#47cacb" stroke="#47cacb" stroke-width="1.51"/><path d="M1541 444l-121 188 264-55z" fill="#46c8cc" stroke="#46c8cc" stroke-width="1.51"/><path d="M1541 722l92-17 51-128z" fill="#48cccb" stroke="#48cccb" stroke-width="1.51"/><path d="M703-231l329 31 186-51z" fill="#36b1d3" stroke="#36b1d3" stroke-width="1.51"/><path d="M1455 418l86 26 14-242z" fill="#44c4cd" stroke="#44c4cd" stroke-width="1.51"/><path d="M1541 722l-143 134 190 77z" fill="#49ceca" stroke="#49ceca" stroke-width="1.51"/><path d="M1198 1329l-118 40 365 13z" fill="#4bd4c8" stroke="#4bd4c8" stroke-width="1.51"/><path d="M1512-47l-77 192 94 25z" fill="#41becf" stroke="#41becf" stroke-width="1.51"/><path d="M1489 1206l-44 176 152-119z" fill="#4dd7c7" stroke="#4dd7c7" stroke-width="1.51"/><path d="M1398 856l86 197 104-120z" fill="#4acfc9" stroke="#4acfc9" stroke-width="1.51"/><path d="M1435 145l-125 83 145 190z" fill="#42c0ce" stroke="#42c0ce" stroke-width="1.51"/><path d="M1368-57l144 10 18-212z" fill="#3dbad0" stroke="#3dbad0" stroke-width="1.51"/><path d="M1359-259l9 202 162-202z" fill="#3cb8d1" stroke="#3cb8d1" stroke-width="1.51"/><path d="M1455 418l-35 214 121-188z" fill="#45c6cc" stroke="#45c6cc" stroke-width="1.51"/><path d="M1529 170l-94-25 120 57z" fill="#42c0ce" stroke="#42c0ce" stroke-width="1.51"/><path d="M1435 145l20 273 100-216z" fill="#42c2ce" stroke="#42c2ce" stroke-width="1.51"/><path d="M1368-57l67 202 77-192z" fill="#3fbcd0" stroke="#3fbcd0" stroke-width="1.51"/><path d="M1420 632l-22 224 143-134z" fill="#48cbcb" stroke="#48cbcb" stroke-width="1.51"/><path d="M1484 1053l-155 134 160 19z" fill="#4bd2c8" stroke="#4bd2c8" stroke-width="1.51"/><path d="M1329 1187l116 195 44-176z" fill="#4cd5c7" stroke="#4cd5c7" stroke-width="1.51"/><path d="M1398 856l-174 103 260 94z" fill="#49ceca" stroke="#49ceca" stroke-width="1.51"/><path d="M1255 699l143 157 22-224z" fill="#47c9cb" stroke="#47c9cb" stroke-width="1.51"/><path d="M1231 418l189 214 35-214z" fill="#44c5cd" stroke="#44c5cd" stroke-width="1.51"/><path d="M1224 959l105 228 155-134z" fill="#4ad0c9" stroke="#4ad0c9" stroke-width="1.51"/><path d="M1368-57l-81 33 148 169z" fill="#3fbbd0" stroke="#3fbbd0" stroke-width="1.51"/><path d="M1329 1187l-131 142 247 53z" fill="#4cd4c8" stroke="#4cd4c8" stroke-width="1.51"/><path d="M1310 228l-79 190h224z" fill="#42c1ce" stroke="#42c1ce" stroke-width="1.51"/><path d="M1259 866l-35 93 174-103z" fill="#48cbca" stroke="#48cbca" stroke-width="1.51"/><path d="M1231 418l24 281 165-67z" fill="#45c6cd" stroke="#45c6cd" stroke-width="1.51"/><path d="M1287-24l23 252 125-83z" fill="#40bdd0" stroke="#40bdd0" stroke-width="1.51"/><path d="M1255 699l4 167 139-10z" fill="#47cacb" stroke="#47cacb" stroke-width="1.51"/><path d="M1287-24l-82 221 105 31z" fill="#3fbccf" stroke="#3fbccf" stroke-width="1.51"/><path d="M1224 959l2 227 103 1z" fill="#49cfc9" stroke="#49cfc9" stroke-width="1.51"/><path d="M1359-259l-141 8 150 194z" fill="#3bb7d1" stroke="#3bb7d1" stroke-width="1.51"/><path d="M1218-251l69 227 81-33z" fill="#3cb8d1" stroke="#3cb8d1" stroke-width="1.51"/><path d="M1174 22l31 175 82-221z" fill="#3ebad0" stroke="#3ebad0" stroke-width="1.51"/><path d="M1226 1186l-28 143 131-142z" fill="#4bd2c8" stroke="#4bd2c8" stroke-width="1.51"/><path d="M1205 197l26 221 79-190z" fill="#41bfcf" stroke="#41bfcf" stroke-width="1.51"/><path d="M1205 197l-91 52 117 169z" fill="#40becf" stroke="#40becf" stroke-width="1.51"/><path d="M1231 418l-223 229 247 52z" fill="#44c4cd" stroke="#44c4cd" stroke-width="1.51"/><path d="M1218-251l-44 273 113-46z" fill="#3bb7d1" stroke="#3bb7d1" stroke-width="1.51"/><path d="M1032-200l142 222 44-273z" fill="#3ab5d2" stroke="#3ab5d2" stroke-width="1.51"/><path d="M1255 699l-130 136 134 31z" fill="#47c8cc" stroke="#47c8cc" stroke-width="1.51"/><path d="M1224 959l-216 179 218 48z" fill="#49cdca" stroke="#49cdca" stroke-width="1.51"/><path d="M969 445l39 202 223-229z" fill="#42c0ce" stroke="#42c0ce" stroke-width="1.51"/><path d="M1125 835l99 124 35-93z" fill="#48cacb" stroke="#48cacb" stroke-width="1.51"/><path d="M1008 647l117 188 130-136z" fill="#45c6cd" stroke="#45c6cd" stroke-width="1.51"/><path d="M1008 1138l72 231 118-40z" fill="#4ad0c9" stroke="#4ad0c9" stroke-width="1.51"/><path d="M1174 22l-143 45 174 130z" fill="#3dbad1" stroke="#3dbad1" stroke-width="1.51"/><path d="M1027 896l-19 242 216-179z" fill="#48cbcb" stroke="#48cbcb" stroke-width="1.51"/><path d="M1008 1138l190 191 28-143z" fill="#4ad0c9" stroke="#4ad0c9" stroke-width="1.51"/><path d="M1114 249L969 445l262-27z" fill="#41becf" stroke="#41becf" stroke-width="1.51"/><path d="M1032-200l-65 84 207 138z" fill="#39b5d2" stroke="#39b5d2" stroke-width="1.51"/><path d="M1125 835l-98 61 197 63z" fill="#47c9cb" stroke="#47c9cb" stroke-width="1.51"/><path d="M1031 67l83 182 91-52z" fill="#3ebad0" stroke="#3ebad0" stroke-width="1.51"/><path d="M703-231l232 63 97-32z" fill="#35b0d3" stroke="#35b0d3" stroke-width="1.51"/><path d="M1008 1138l-58 74 130 157z" fill="#4aceca" stroke="#4aceca" stroke-width="1.51"/><path d="M967-116l64 183 143-45z" fill="#3bb7d1" stroke="#3bb7d1" stroke-width="1.51"/><path d="M967-116L931-12l100 79z" fill="#3ab5d2" stroke="#3ab5d2" stroke-width="1.51"/><path d="M879 356l90 89 145-196z" fill="#3fbcd0" stroke="#3fbcd0" stroke-width="1.51"/><path d="M1031 67l-91 66 174 116z" fill="#3db9d1" stroke="#3db9d1" stroke-width="1.51"/><path d="M1008 647l19 249 98-61z" fill="#45c6cc" stroke="#45c6cc" stroke-width="1.51"/><path d="M940 133l-61 223 235-107z" fill="#3ebad0" stroke="#3ebad0" stroke-width="1.51"/><path d="M1008 647L840 781l187 115z" fill="#45c4cd" stroke="#45c4cd" stroke-width="1.51"/><path d="M811 937l197 201 19-242z" fill="#47c9cb" stroke="#47c9cb" stroke-width="1.51"/><path d="M950 1212l-64 146 194 11z" fill="#4acfc9" stroke="#4acfc9" stroke-width="1.51"/><path d="M-83-280l175 69 338 10z" fill="#28a5d7" stroke="#28a5d7" stroke-width="1.51"/><path d="M969 445L851 610l157 37z" fill="#42c0ce" stroke="#42c0ce" stroke-width="1.51"/><path d="M935-168l32 52 65-84z" fill="#37b2d3" stroke="#37b2d3" stroke-width="1.51"/><path d="M931-12l9 145 91-66z" fill="#3bb6d1" stroke="#3bb6d1" stroke-width="1.51"/><path d="M840 781l-29 156 216-41z" fill="#45c5cd" stroke="#45c5cd" stroke-width="1.51"/><path d="M851 610l-11 171 168-134z" fill="#43c1ce" stroke="#43c1ce" stroke-width="1.51"/><path d="M811 937l139 275 58-74z" fill="#47cacb" stroke="#47cacb" stroke-width="1.51"/><path d="M775 305l104 51 61-223z" fill="#3db9d1" stroke="#3db9d1" stroke-width="1.51"/><path d="M931-12L783 43l157 90z" fill="#39b5d2" stroke="#39b5d2" stroke-width="1.51"/><path d="M811 937l-76 266 215 9z" fill="#47c9cb" stroke="#47c9cb" stroke-width="1.51"/><path d="M935-168l-4 156 36-104z" fill="#38b3d2" stroke="#38b3d2" stroke-width="1.51"/><path d="M879 356l-57 22 147 67z" fill="#3fbcd0" stroke="#3fbcd0" stroke-width="1.51"/><path d="M822 378l29 232 118-165z" fill="#40bdcf" stroke="#40bdcf" stroke-width="1.51"/><path d="M770-6l161-6 4-156z" fill="#38b3d3" stroke="#38b3d3" stroke-width="1.51"/><path d="M735 1203l151 155 64-146z" fill="#49cdca" stroke="#49cdca" stroke-width="1.51"/><path d="M822 378l-114 96 143 136z" fill="#3fbcd0" stroke="#3fbcd0" stroke-width="1.51"/><path d="M735 1203l21 134 130 21z" fill="#48ccca" stroke="#48ccca" stroke-width="1.51"/><path d="M783 43l-8 262 165-172z" fill="#3bb6d1" stroke="#3bb6d1" stroke-width="1.51"/><path d="M703-231L770-6l165-162z" fill="#36b1d4" stroke="#36b1d4" stroke-width="1.51"/><path d="M770-6l13 49 148-55z" fill="#38b3d2" stroke="#38b3d2" stroke-width="1.51"/><path d="M622 1054l113 149 76-266z" fill="#46c7cc" stroke="#46c7cc" stroke-width="1.51"/><path d="M775 305l47 73 57-22z" fill="#3ebad0" stroke="#3ebad0" stroke-width="1.51"/><path d="M637 722l203 59 11-171z" fill="#42c0ce" stroke="#42c0ce" stroke-width="1.51"/><path d="M584 113l191 192 8-262z" fill="#3ab5d2" stroke="#3ab5d2" stroke-width="1.51"/><path d="M583 842l228 95 29-156z" fill="#43c3cd" stroke="#43c3cd" stroke-width="1.51"/><path d="M708 474l-91 113 234 23z" fill="#40bdcf" stroke="#40bdcf" stroke-width="1.51"/><path d="M617 587l20 135 214-112z" fill="#40becf" stroke="#40becf" stroke-width="1.51"/><path d="M637 722l-54 120 257-61z" fill="#42c1ce" stroke="#42c1ce" stroke-width="1.51"/><path d="M775 305l-67 169 114-96z" fill="#3ebad0" stroke="#3ebad0" stroke-width="1.51"/><path d="M583 842l39 212 189-117z" fill="#44c4cd" stroke="#44c4cd" stroke-width="1.51"/><path d="M703-231l-186 63L770-6z" fill="#34afd4" stroke="#34afd4" stroke-width="1.51"/><path d="M770-6L584 113l199-70z" fill="#38b3d3" stroke="#38b3d3" stroke-width="1.51"/><path d="M488 308l220 166 67-169z" fill="#3cb8d1" stroke="#3cb8d1" stroke-width="1.51"/><path d="M584 113l-96 195 287-3z" fill="#3ab5d2" stroke="#3ab5d2" stroke-width="1.51"/><path d="M517-168l67 281L770-6z" fill="#35b0d3" stroke="#35b0d3" stroke-width="1.51"/><path d="M430-201l87 33 186-63z" fill="#30abd5" stroke="#30abd5" stroke-width="1.51"/><path d="M488 308l56 174 164-8z" fill="#3cb8d1" stroke="#3cb8d1" stroke-width="1.51"/><path d="M735 1203l-289 123 310 11z" fill="#47cacb" stroke="#47cacb" stroke-width="1.51"/><path d="M517-168L445-42l139 155z" fill="#33aed4" stroke="#33aed4" stroke-width="1.51"/><path d="M622 1054l-160 121 273 28z" fill="#45c7cc" stroke="#45c7cc" stroke-width="1.51"/><path d="M462 1175l-16 151 289-123z" fill="#46c8cc" stroke="#46c8cc" stroke-width="1.51"/><path d="M583 842l-70 120 109 92z" fill="#43c2ce" stroke="#43c2ce" stroke-width="1.51"/><path d="M617 587l-34 67 54 68z" fill="#3fbdcf" stroke="#3fbdcf" stroke-width="1.51"/><path d="M544 482l73 105 91-113z" fill="#3ebad0" stroke="#3ebad0" stroke-width="1.51"/><path d="M445-42L428-3l156 116z" fill="#34afd4" stroke="#34afd4" stroke-width="1.51"/><path d="M583 654v188l54-120z" fill="#41bfcf" stroke="#41bfcf" stroke-width="1.51"/><path d="M513 962l-51 213 160-121z" fill="#44c4cd" stroke="#44c4cd" stroke-width="1.51"/><path d="M394 867l189-25V654z" fill="#41bfcf" stroke="#41bfcf" stroke-width="1.51"/><path d="M398 170l90 138 96-195z" fill="#37b2d3" stroke="#37b2d3" stroke-width="1.51"/><path d="M544 482l39 172 34-67z" fill="#3ebbd0" stroke="#3ebbd0" stroke-width="1.51"/><path d="M488 308l-55 43 111 131z" fill="#3ab6d2" stroke="#3ab6d2" stroke-width="1.51"/><path d="M348 505l-1 145 197-168z" fill="#3cb8d1" stroke="#3cb8d1" stroke-width="1.51"/><path d="M394 867l119 95 70-120z" fill="#42c0ce" stroke="#42c0ce" stroke-width="1.51"/><path d="M544 482L347 650l236 4z" fill="#3ebad1" stroke="#3ebad1" stroke-width="1.51"/><path d="M347 650l47 217 189-213z" fill="#3fbcd0" stroke="#3fbcd0" stroke-width="1.51"/><path d="M428-3l-30 173 186-57z" fill="#35b0d4" stroke="#35b0d4" stroke-width="1.51"/><path d="M399 1257l47 69 16-151z" fill="#45c6cc" stroke="#45c6cc" stroke-width="1.51"/><path d="M433 351l-85 154 196-23z" fill="#3bb6d1" stroke="#3bb6d1" stroke-width="1.51"/><path d="M264 1021l198 154 51-213z" fill="#43c2cd" stroke="#43c2cd" stroke-width="1.51"/><path d="M394 867l-130 154 249-59z" fill="#42c0ce" stroke="#42c0ce" stroke-width="1.51"/><path d="M430-201l15 159 72-126z" fill="#30acd5" stroke="#30acd5" stroke-width="1.51"/><path d="M264 1021l44 178 154-24z" fill="#43c3cd" stroke="#43c3cd" stroke-width="1.51"/><path d="M398 170l35 181 55-43z" fill="#38b3d3" stroke="#38b3d3" stroke-width="1.51"/><path d="M398 170L239 286l194 65z" fill="#37b2d3" stroke="#37b2d3" stroke-width="1.51"/><path d="M308 1199l91 58 63-82z" fill="#45c5cc" stroke="#45c5cc" stroke-width="1.51"/><path d="M347 650l-93 188 140 29z" fill="#3fbcd0" stroke="#3fbcd0" stroke-width="1.51"/><path d="M233 102l165 68L428-3z" fill="#34aed4" stroke="#34aed4" stroke-width="1.51"/><path d="M430-201l-321 61 336 98z" fill="#2eaad6" stroke="#2eaad6" stroke-width="1.51"/><path d="M109-140L428-3l17-39z" fill="#30abd5" stroke="#30abd5" stroke-width="1.51"/><path d="M399 1257l-273 141 320-72z" fill="#45c6cc" stroke="#45c6cc" stroke-width="1.51"/><path d="M109-140l124 242L428-3z" fill="#30abd5" stroke="#30abd5" stroke-width="1.51"/><path d="M239 286l109 219 85-154z" fill="#38b4d2" stroke="#38b4d2" stroke-width="1.51"/><path d="M308 1199l-182 199 273-141z" fill="#45c5cc" stroke="#45c5cc" stroke-width="1.51"/><path d="M92-211l17 71 321-61z" fill="#2aa7d6" stroke="#2aa7d6" stroke-width="1.51"/><path d="M229 1192l-103 206 182-199z" fill="#44c4cd" stroke="#44c4cd" stroke-width="1.51"/><path d="M254 838l10 183 130-154z" fill="#40becf" stroke="#40becf" stroke-width="1.51"/><path d="M233 102l6 184 159-116z" fill="#35afd4" stroke="#35afd4" stroke-width="1.51"/><path d="M264 1021l-35 171 79 7z" fill="#43c2cd" stroke="#43c2cd" stroke-width="1.51"/><path d="M103 710l151 128 93-188z" fill="#3dbad1" stroke="#3dbad1" stroke-width="1.51"/><path d="M109 505l-6 205 244-60z" fill="#3bb6d1" stroke="#3bb6d1" stroke-width="1.51"/><path d="M109 505l238 145 1-145z" fill="#3bb6d1" stroke="#3bb6d1" stroke-width="1.51"/><path d="M239 286L109 505h239z" fill="#38b4d3" stroke="#38b4d3" stroke-width="1.51"/><path d="M254 838L142 997l122 24z" fill="#40bdcf" stroke="#40bdcf" stroke-width="1.51"/><path d="M75 882l67 115 112-159z" fill="#3ebccf" stroke="#3ebccf" stroke-width="1.51"/><path d="M142 997l87 195 35-171z" fill="#41c0ce" stroke="#41c0ce" stroke-width="1.51"/><path d="M109-140L-49 16l282 86z" fill="#2da9d6" stroke="#2da9d6" stroke-width="1.51"/><path d="M233 102L-31 359l270-73z" fill="#34afd4" stroke="#34afd4" stroke-width="1.51"/><path d="M-31 359l140 146 130-219z" fill="#36b1d3" stroke="#36b1d3" stroke-width="1.51"/><path d="M103 710L75 882l179-44z" fill="#3ebad1" stroke="#3ebad1" stroke-width="1.51"/><path d="M-31 359l16 75 124 71z" fill="#36b1d4" stroke="#36b1d4" stroke-width="1.51"/><path d="M142 997l-190 78 277 117z" fill="#41bfcf" stroke="#41bfcf" stroke-width="1.51"/><path d="M-119 94l88 265 264-257z" fill="#30acd5" stroke="#30acd5" stroke-width="1.51"/><path d="M-49 16l-70 78 352 8z" fill="#2daad6" stroke="#2daad6" stroke-width="1.51"/><path d="M-48 1075l174 323 103-206z" fill="#42c1ce" stroke="#42c1ce" stroke-width="1.51"/><path d="M33 709l42 173 28-172z" fill="#3cb8d1" stroke="#3cb8d1" stroke-width="1.51"/><path d="M33 709l70 1 6-205z" fill="#3ab5d2" stroke="#3ab5d2" stroke-width="1.51"/><path d="M-48 1075l-11 315 185 8z" fill="#43c1ce" stroke="#43c1ce" stroke-width="1.51"/><path d="M75 882l2 80 65 35z" fill="#3fbcd0" stroke="#3fbcd0" stroke-width="1.51"/><path d="M77 962l-125 113 190-78z" fill="#3fbdcf" stroke="#3fbdcf" stroke-width="1.51"/><path d="M-119 649l152 60 76-204z" fill="#39b4d2" stroke="#39b4d2" stroke-width="1.51"/><path d="M-76-93l27 109 158-156z" fill="#29a6d7" stroke="#29a6d7" stroke-width="1.51"/><path d="M-15 434l-104 215 228-144z" fill="#37b2d3" stroke="#37b2d3" stroke-width="1.51"/><path d="M92-211L-76-93l185-47z" fill="#28a5d7" stroke="#28a5d7" stroke-width="1.51"/><path d="M-83-280l7 187L92-211z" fill="#25a4d7" stroke="#25a4d7" stroke-width="1.51"/><path d="M-207 1311l148 79 11-315z" fill="#41bfcf" stroke="#41bfcf" stroke-width="1.51"/><path d="M33 709l-258 41L75 882z" fill="#3bb6d1" stroke="#3bb6d1" stroke-width="1.51"/><path d="M75 882l-205 174 207-94zm-205 174l82 19L77 962z" fill="#3ebbd0" stroke="#3ebbd0" stroke-width="1.51"/><path d="M-225 750l95 306L75 882z" fill="#3cb8d1" stroke="#3cb8d1" stroke-width="1.51"/><path d="M-143 444l24 205 104-215z" fill="#35b1d4" stroke="#35b1d4" stroke-width="1.51"/><path d="M-119 649l-106 101 258-41z" fill="#39b4d2" stroke="#39b4d2" stroke-width="1.51"/><path d="M-76-93l-50 68 77 41z" fill="#28a6d6" stroke="#28a6d6" stroke-width="1.51"/><path d="M-130 1056l-121 88 203-69z" fill="#3ebbd0" stroke="#3ebbd0" stroke-width="1.51"/><path d="M-251 1144l44 167 159-236z" fill="#3fbdcf" stroke="#3fbdcf" stroke-width="1.51"/><path d="M-119 94l-143 136 231 129z" fill="#2faad5" stroke="#2faad5" stroke-width="1.51"/><path d="M-31 359l-112 85 128-10z" fill="#34afd4" stroke="#34afd4" stroke-width="1.51"/><path d="M-83-280l-165 54L-76-93z" fill="#23a2d8" stroke="#23a2d8" stroke-width="1.51"/><path d="M-262 230l119 214 112-85z" fill="#31acd5" stroke="#31acd5" stroke-width="1.51"/><path d="M-126-25l7 119 70-78z" fill="#2aa7d7" stroke="#2aa7d7" stroke-width="1.51"/><path d="M-248-226l122 201 50-68z" fill="#25a3d7" stroke="#25a3d7" stroke-width="1.51"/><path d="M-225 750l-26 394 121-88z" fill="#3cb9d0" stroke="#3cb9d0" stroke-width="1.51"/><path d="M-143 444l-82 306 106-101z" fill="#36b2d3" stroke="#36b2d3" stroke-width="1.51"/><path d="M-126-25l-136 255 143-136z" fill="#2ba8d6" stroke="#2ba8d6" stroke-width="1.51"/><path d="M-248-226l-14 456 136-255z" fill="#27a5d7" stroke="#27a5d7" stroke-width="1.51"/><path d="M-262 230l37 520 82-306z" fill="#33aed4" stroke="#33aed4" stroke-width="1.51"/><path d="M-262 230l11 914 26-394z" fill="#37b3d3" stroke="#37b3d3" stroke-width="1.51"/></svg>